# xmcd
#
# Track frame offsets:
#	150
#	29185
#	51782
#	77170
#	109212
#
# Disc length: 1605 seconds
#
# Revision: 1
# Processed by: cddbd v1.5.1PL0 Copyright (c) Steve Scherf et al.
# Submitted via: CDex 1.50Beta5
#
DISCID=40064305
DTITLE=浜田真理子 - Love Song
DYEAR=2003
DGENRE=Pop
TTITLE0=Love Song
TTITLE1=ラストダンスは私に
TTITLE2=貝殻節(Live Version)
TTITLE3=アカシアの雨がやむとき
TTITLE4=Winter People
EXTD=
EXTT0=
EXTT1=
EXTT2=
EXTT3=
EXTT4=
PLAYORDER=
